<svg xmlns="http://www.w3.org/2000/svg" width="50" height="45" viewBox="0 0 50 45" fill="none"><g clip-path=""><path d="M20.803 26.2329H28.956V32.3004L18.1854 39.5866L6.52238 32.5922L2.65186 34.6519L18.1854 44.015L29.8056 36.231L29.8313 36.2482L32.7235 34.4116V26.2329V25.9583V22.4568H20.803V26.2329Z" fill="#FF0000"></path><path d="M10.041 17.2731L18.194 12.656L26.6816 17.5564L28.9044 14.5011L18.1854 8.32202L6.27344 15.0847V23.9929V24.5336V29.125V29.1508L18.1854 35.8963L27.085 30.069H20.8029L18.194 31.5795L10.041 26.9623V26.9194V17.2731Z" fill="white"></path><path d="M18.1854 0.89856L0 11.3945V27.9579V32.5665L3.76754 30.4982V25.8982V25.6236V13.437L18.1854 5.2411L30.5007 12.2698L32.7235 9.20602L18.1854 0.89856Z" fill="white"></path></g><path d="M40 10V30H43V10H40Z" fill="#FF0000"/><circle cx="41.5" cy="35" r="2" fill="#FF0000"/><defs><clipPath id=""><rect width="50" height="43.1164" fill="white" transform="translate(0 0.89856)"></rect></clipPath></defs></svg>