<svg xmlns="http://www.w3.org/2000/svg" width="115" height="45" viewBox="0 0 115 45" fill="none"><g clip-path=""><path d="M20.803 26.2329H28.956V32.3004L18.1854 39.5866L6.52238 32.5922L2.65186 34.6519L18.1854 44.015L29.8056 36.231L29.8313 36.2482L32.7235 34.4116V26.2329V25.9583V22.4568H20.803V26.2329Z" fill="#00C2CC"></path><path d="M10.041 17.2731L18.194 12.656L26.6816 17.5564L28.9044 14.5011L18.1854 8.32202L6.27344 15.0847V23.9929V24.5336V29.125V29.1508L18.1854 35.8963L27.085 30.069H20.8029L18.194 31.5795L10.041 26.9623V26.9194V17.2731Z" fill="white"></path><path d="M18.1854 0.89856L0 11.3945V27.9579V32.5665L3.76754 30.4982V25.8982V25.6236V13.437L18.1854 5.2411L30.5007 12.2698L32.7235 9.20602L18.1854 0.89856Z" fill="white"></path><path d="M66.1849 12.8792L63.7133 14.6729C63.0095 13.7288 62.1342 13.0079 61.07 12.5102C60.0058 12.0124 58.8901 11.7635 57.7144 11.7635C55.0969 11.7635 52.917 12.7505 51.1748 14.7243C49.4327 16.6982 48.5659 19.024 48.5659 21.7102C48.5659 24.5337 49.4241 26.8937 51.1405 28.799C52.8569 30.7042 55.0454 31.6568 57.7144 31.6568C60.6066 31.6568 62.9237 30.5411 64.6573 28.3098L66.7943 30.1034C64.7174 32.9012 61.6879 34.3001 57.7144 34.3001C54.2558 34.3001 51.3637 33.1072 49.0293 30.7128C46.695 28.327 45.5278 25.3232 45.5278 21.7102C45.5278 18.0971 46.6778 15.162 48.9864 12.7419C51.2864 10.3303 54.2043 9.12024 57.723 9.12024C61.4476 9.12024 64.2711 10.3732 66.1935 12.8792" fill="white"></path><path d="M90.0345 12.8792L87.5629 14.6729C86.8592 13.7288 85.9838 13.0079 84.9196 12.5102C83.8554 12.0124 82.7398 11.7635 81.564 11.7635C78.9465 11.7635 76.7666 12.7505 75.0245 14.7243C73.2823 16.6982 72.4155 19.024 72.4155 21.7102C72.4155 24.5337 73.2737 26.8937 74.9901 28.799C76.7065 30.7042 78.895 31.6568 81.564 31.6568C84.4562 31.6568 86.7733 30.5411 88.5069 28.3098L90.6439 30.1034C88.567 32.9012 85.5375 34.3001 81.564 34.3001C78.1054 34.3001 75.2133 33.1072 72.8789 30.7128C70.5446 28.327 69.3774 25.3232 69.3774 21.7102C69.3774 18.0971 70.5274 15.162 72.836 12.7419C75.136 10.3303 78.0539 9.12024 81.5726 9.12024C85.2972 9.12024 88.1207 10.3732 90.0431 12.8792" fill="white"></path><path d="M115 20.2855V32.0602C112.314 33.5449 109.319 34.2915 106.023 34.2915C102.273 34.2915 99.2005 33.1329 96.8061 30.8072C94.4117 28.4814 93.2188 25.452 93.2188 21.7102C93.2188 17.9684 94.4546 14.9904 96.9262 12.6389C99.3979 10.296 102.462 9.12024 106.126 9.12024C109.791 9.12024 112.52 10.1673 114.597 12.2699L112.46 14.5012C110.769 12.6732 108.589 11.7635 105.92 11.7635C103.251 11.7635 100.865 12.699 99.0288 14.5699C97.1837 16.4408 96.2654 18.818 96.2654 21.7102C96.2654 24.6023 97.1837 26.9796 99.0288 28.8505C100.865 30.7214 103.26 31.6568 106.195 31.6568C108.315 31.6568 110.306 31.1934 112.159 30.2665V22.9288H106.641V20.2855H115.009H115Z" fill="white"></path></g><defs><clipPath id=""><rect width="115" height="43.1164" fill="white" transform="translate(0 0.89856)"></rect></clipPath></defs></svg>